<?xml version="1.0" standalone="no"?><!DOCTYPE svg PUBLIC "-//W3C//DTD SVG 1.1//EN" "http://www.w3.org/Graphics/SVG/1.1/DTD/svg11.dtd"><svg t="1624328036659" class="icon" viewBox="0 0 1024 1024" version="1.1" xmlns="http://www.w3.org/2000/svg" p-id="2511" xmlns:xlink="http://www.w3.org/1999/xlink" width="200" height="200"><defs><style type="text/css"></style></defs><path d="M575.808 734.72V384.768c0-40.832 63.808-40.832 63.808 0v349.952c0 40.768-63.808 40.768-63.808 0z m-191.424 0V384.768c0-40.832 63.808-40.832 63.808 0v349.952c0 40.768-63.808 40.768-63.808 0z m542.4-509.056h-159.552V161.92a95.36 95.36 0 0 0-94.72-95.424h-320c-52.864 0-95.744 42.752-95.744 95.424v63.68H97.216c-40.896 0-40.896 63.616 0 63.616h829.568c40.896 0 40.896-63.616 0-63.616zM320.64 161.92c0-16.896 14.912-31.808 31.872-31.808h320.064c16.96 0 30.912 12.928 30.912 31.808v63.68H320.64V161.92z m414.72 795.456H288.64a95.552 95.552 0 0 1-95.68-95.424V384.768c0-18.944 14.912-31.872 31.872-31.872s31.936 12.928 31.936 31.872v477.248c0 16.896 14.976 31.808 31.872 31.808h446.72a32.768 32.768 0 0 0 31.872-31.808V385.728c0-41.792 63.808-41.792 63.808 0v476.288c0 52.672-42.88 95.424-95.68 95.424z"  p-id="2512"></path></svg>
