<?xml version="1.0" encoding="UTF-8"?>
<svg width="16px" height="16px" viewBox="0 0 16 16" version="1.1" xmlns="http://www.w3.org/2000/svg" xmlns:xlink="http://www.w3.org/1999/xlink">
    <title>数据字典管理</title>
    <g id="应用管理平台" stroke="none" stroke-width="1" fill="none" fill-rule="evenodd">
        <g id="应用管理平台-字典管理" transform="translate(-20.000000, -317.000000)" fill-rule="nonzero">
            <g id="数据字典管理" transform="translate(20.000000, 317.000000)">
                <rect id="矩形" fill="#000000" opacity="0" x="0" y="0" width="16" height="16"></rect>
                <path d="M3.721875,11.785 L13.7046875,11.785 C13.9635937,11.785 14.1734375,11.5751562 14.1734375,11.31625 L14.1734375,1.83828125 C14.1734375,1.579375 13.9635937,1.36953125 13.7046875,1.36953125 L3.721875,1.36953125 C3.21734375,1.36953125 2.74296875,1.5659375 2.38609375,1.9228125 C2.029375,2.2796875 1.83296875,2.7540625 1.83296875,3.2584375 L1.83296875,12.7364062 C1.83296875,13.7779687 2.6803125,14.6253125 3.721875,14.6253125 L13.7046875,14.6253125 C13.9635937,14.6253125 14.1734375,14.4154687 14.1734375,14.1565625 C14.1734375,13.8976562 13.9635937,13.6878125 13.7046875,13.6878125 L3.721875,13.6878125 C3.70546875,13.6878125 3.68921875,13.6873437 3.67296875,13.6865625 C3.1709375,13.6610937 2.77046875,13.2445312 2.77046875,12.7364062 C2.77046875,12.4823437 2.86953125,12.2434375 3.0490625,12.0635937 C3.22875,11.8839062 3.4678125,11.785 3.721875,11.785 Z M2.77046875,3.2584375 C2.77046875,3.004375 2.86953125,2.76546875 3.0490625,2.585625 C3.22875,2.4059375 3.46765625,2.30703125 3.721875,2.30703125 L13.2359375,2.30703125 L13.2359375,10.8475 L3.721875,10.8475 C3.3821875,10.8475 3.05609375,10.9367187 2.77046875,11.1039062 L2.77046875,3.2584375 Z" id="形状" fill="#333333"></path>
                <g id="字典管理" transform="translate(4.640000, 2.952000)" fill="#000000">
                    <path d="M3.44,5.84 C2.12,5.84 1.04,4.76 1.04,3.44 C1.04,2.12 2.12,1.04 3.44,1.04 C4.76,1.04 5.84,2.12 5.84,3.44 C5.84,4.76 4.76,5.84 3.44,5.84 Z M3.44,1.84 C2.56,1.84 1.84,2.56 1.84,3.44 C1.84,4.32 2.56,5.04 3.44,5.04 C4.32,5.04 5.04,4.32 5.04,3.44 C5.04,2.56 4.32,1.84 3.44,1.84 Z" id="形状"></path>
                    <path d="M3.416,1.528 C3.192,1.528 3.016,1.352 3.016,1.128 L3.016,0.4 C3.016,0.176 3.192,0 3.416,0 C3.64,0 3.816,0.176 3.816,0.4 L3.816,1.128 C3.816,1.352 3.64,1.528 3.416,1.528 Z M1.784,2.216 C1.68,2.216 1.576,2.176 1.496,2.096 L0.992,1.584 C0.84,1.424 0.84,1.176 1,1.016 C1.16,0.864 1.408,0.864 1.568,1.024 L2.072,1.536 C2.224,1.696 2.224,1.944 2.064,2.104 C1.984,2.176 1.888,2.216 1.784,2.216 L1.784,2.216 Z M1.12,3.864 L0.4,3.864 C0.176,3.864 0,3.688 0,3.464 C0,3.24 0.176,3.064 0.4,3.064 L1.12,3.064 C1.344,3.064 1.52,3.24 1.52,3.464 C1.52,3.688 1.344,3.864 1.12,3.864 Z M1.296,6 C1.192,6 1.088,5.96 1.008,5.88 C0.856,5.72 0.856,5.472 1.016,5.312 L1.536,4.8 C1.696,4.648 1.944,4.648 2.104,4.808 C2.256,4.968 2.256,5.216 2.096,5.376 L1.576,5.888 C1.496,5.96 1.4,6 1.296,6 L1.296,6 Z M3.464,6.88 C3.24,6.88 3.064,6.704 3.064,6.48 L3.064,5.76 C3.064,5.536 3.24,5.36 3.464,5.36 C3.688,5.36 3.864,5.536 3.864,5.76 L3.864,6.48 C3.864,6.704 3.688,6.88 3.464,6.88 Z M5.6,5.984 C5.496,5.984 5.392,5.944 5.312,5.864 L4.8,5.344 C4.648,5.184 4.648,4.936 4.808,4.776 C4.968,4.624 5.216,4.624 5.376,4.784 L5.888,5.304 C6.04,5.464 6.04,5.712 5.88,5.872 C5.8,5.944 5.704,5.984 5.6,5.984 L5.6,5.984 Z M6.48,3.816 L5.752,3.816 C5.528,3.816 5.352,3.64 5.352,3.416 C5.352,3.192 5.528,3.016 5.752,3.016 L6.48,3.016 C6.704,3.016 6.88,3.192 6.88,3.416 C6.88,3.64 6.704,3.816 6.48,3.816 Z M5.064,2.192 C4.96,2.192 4.856,2.152 4.784,2.072 C4.624,1.912 4.624,1.664 4.784,1.504 L5.296,0.992 C5.456,0.832 5.704,0.832 5.864,0.992 C6.024,1.152 6.024,1.4 5.864,1.56 L5.352,2.072 C5.272,2.152 5.168,2.192 5.064,2.192 L5.064,2.192 Z" id="形状"></path>
                </g>
            </g>
        </g>
    </g>
</svg>