<?xml version="1.0" standalone="no"?><!DOCTYPE svg PUBLIC "-//W3C//DTD SVG 1.1//EN" "http://www.w3.org/Graphics/SVG/1.1/DTD/svg11.dtd"><svg t="1631859649928" class="icon" viewBox="0 0 1024 1024" version="1.1" xmlns="http://www.w3.org/2000/svg" p-id="2459" xmlns:xlink="http://www.w3.org/1999/xlink" width="200" height="200"><defs><style type="text/css"></style></defs><path d="M1008.302 306.557l-218.61 218.61c-20.13 20.13-52.741 20.13-72.87 0l-218.583-218.61c-20.13-20.101-20.13-52.74 0-72.842l218.582-218.61c20.13-20.13 52.741-20.13 72.87 0l218.611 218.61c20.13 20.101 20.13 52.74 0 72.842zM753.67 54.823l-215.71 215.71 215.71 215.712 215.71-215.711-215.71-215.71z m-383.827 969.149H57.094c-31.417 0-56.863-25.447-56.863-56.864V654.361c0-31.389 25.446-56.864 56.863-56.864h312.748c31.388 0 56.863 25.475 56.863 56.864v312.747c0 31.417-25.475 56.864-56.863 56.864z m0-369.611H57.094v312.747h312.748V654.361z m0-142.158H57.094c-31.417 0-56.863-25.447-56.863-56.864V142.592c0-31.389 25.446-56.864 56.863-56.864h312.748c31.388 0 56.863 25.475 56.863 56.864v312.747c0 31.417-25.475 56.864-56.863 56.864z m0-369.611H57.094v312.747h312.748V142.592z m199.021 454.905h312.748c31.388 0 56.863 25.475 56.863 56.864v312.747c0 31.417-25.475 56.864-56.863 56.864H568.863c-31.417 0-56.863-25.447-56.863-56.864V654.361c0-31.389 25.446-56.864 56.863-56.864z m0 369.611h312.748V654.361H568.863v312.747z" fill="" p-id="2460"></path></svg>