<?xml version="1.0" standalone="no"?><!DOCTYPE svg PUBLIC "-//W3C//DTD SVG 1.1//EN" "http://www.w3.org/Graphics/SVG/1.1/DTD/svg11.dtd"><svg t="1631792474367" class="icon" viewBox="0 0 1024 1024" version="1.1" xmlns="http://www.w3.org/2000/svg" p-id="2192" xmlns:xlink="http://www.w3.org/1999/xlink" width="200" height="200"><defs><style type="text/css"></style></defs><path d="M725.48 805.285l-72.762-42.009c-33.855 39.847-84.333 65.13-140.718 65.13-58.336 0-110.35-27.063-144.173-69.32l-70.666 40.8a105.557 105.557 0 0 1 3.901 28.52c0 58.249-47.22 105.469-105.468 105.469-58.249 0-105.469-47.22-105.469-105.469 0-58.248 47.22-105.469 105.469-105.468 29.365 0 55.927 12 75.049 31.365l70.44-40.669c-8.802-21.532-13.653-45.099-13.653-69.798 0-92.983 68.758-169.907 158.203-182.702v-56.79c-74.823-12.553-131.836-77.627-131.836-156.016 0-87.373 70.83-158.203 158.203-158.203s158.203 70.83 158.203 158.203c0 78.39-57.013 143.462-131.836 156.016v56.79c89.445 12.795 158.203 89.719 158.203 182.702 0 26.611-5.632 51.908-15.768 74.762l68.794 39.718c19.318-21.706 47.466-35.379 78.81-35.379 58.249 0 105.469 47.22 105.469 105.47 0 58.248-47.22 105.468-105.469 105.468-58.248 0-105.469-47.22-105.468-105.469 0-7.943 0.878-15.68 2.541-23.121zM512 775.672c72.811 0 131.836-59.025 131.836-131.836S584.81 512 512 512s-131.836 59.025-131.836 131.836S439.19 775.672 512 775.672z m0-421.875c58.248 0 105.469-47.22 105.469-105.469 0-58.248-47.22-105.469-105.469-105.469-58.248 0-105.469 47.22-105.469 105.47 0 58.248 47.22 105.468 105.469 105.468zM195.594 881.14c29.124 0 52.734-23.61 52.734-52.735 0-29.124-23.61-52.734-52.734-52.734-29.124 0-52.735 23.61-52.735 52.734 0 29.124 23.61 52.735 52.735 52.735z m632.812 0c29.124 0 52.735-23.61 52.735-52.735 0-29.124-23.61-52.734-52.735-52.734-29.124 0-52.734 23.61-52.734 52.734 0 29.124 23.61 52.735 52.734 52.735z" p-id="2193"></path></svg>