<?xml version="1.0" standalone="no"?><!DOCTYPE svg PUBLIC "-//W3C//DTD SVG 1.1//EN" "http://www.w3.org/Graphics/SVG/1.1/DTD/svg11.dtd"><svg t="1631861706239" class="icon" viewBox="0 0 1024 1024" version="1.1" xmlns="http://www.w3.org/2000/svg" p-id="2711" xmlns:xlink="http://www.w3.org/1999/xlink" width="200" height="200"><defs><style type="text/css"></style></defs><path d="M127.914667 512a385.152 385.152 0 0 1 384-384 385.152 385.152 0 0 1 384 384 385.152 385.152 0 0 1-384 384 385.109333 385.109333 0 0 1-384-384z m69.888 0a315.093333 315.093333 0 0 0 314.154666 314.154667A315.093333 315.093333 0 0 0 826.112 512a315.136 315.136 0 0 0-314.154667-314.24A315.136 315.136 0 0 0 197.632 512z m171.52 82.346667a32.042667 32.042667 0 0 1 9.258666-43.434667 32.213333 32.213333 0 0 1 43.434667 9.344 110.122667 110.122667 0 0 0 89.898667 47.957333 105.258667 105.258667 0 0 0 88.234666-47.957333 30.890667 30.890667 0 0 1 43.477334-9.344 30.848 30.848 0 0 1 9.258666 43.434667 166.4 166.4 0 0 1-140.8 75.904 170.666667 170.666667 0 0 1-142.805333-75.776z m189.056-156.544a45.568 45.568 0 0 1 46.421333-46.464 45.696 45.696 0 0 1 46.592 46.464 45.781333 45.781333 0 0 1-46.592 46.549333 46.677333 46.677333 0 0 1-46.464-46.549333z m-186.026667 0a45.696 45.696 0 0 1 46.549333-46.464 45.568 45.568 0 0 1 46.464 46.464 45.653333 45.653333 0 0 1-46.464 46.549333 46.677333 46.677333 0 0 1-46.592-46.549333z" p-id="2712"></path></svg>