<?xml version="1.0" standalone="no"?><!DOCTYPE svg PUBLIC "-//W3C//DTD SVG 1.1//EN" "http://www.w3.org/Graphics/SVG/1.1/DTD/svg11.dtd"><svg t="1631859708996" class="icon" viewBox="0 0 1042 1024" version="1.1" xmlns="http://www.w3.org/2000/svg" p-id="5282" xmlns:xlink="http://www.w3.org/1999/xlink" width="203.515625" height="200"><defs><style type="text/css"></style></defs><path d="M772.608 665.6c-55.296 0-100.352 45.056-100.352 100.352s45.056 100.352 100.352 100.352 100.352-45.056 100.352-100.352-45.056-100.352-100.352-100.352z m0 148.992c-26.624 0-48.64-22.016-48.64-48.64s22.016-48.64 48.64-48.64c27.136 0 48.64 22.016 48.64 48.64s-21.504 48.64-48.64 48.64z m264.704-101.376c-3.584-19.968-16.384-32.768-32.768-32.768h-2.56c-31.232 0-56.832-25.6-56.832-56.832 0-8.192 3.584-18.432 4.608-21.504 7.68-18.432 1.024-39.424-15.872-50.688l-66.048-36.864c-5.12-2.048-11.264-3.072-16.896-3.072-11.776 0-23.552 4.608-31.744 13.312-8.192 8.192-30.208 26.112-45.568 26.112s-37.376-17.92-45.568-26.624a44.3392 44.3392 0 0 0-48.128-9.728l-1.536 0.512-67.584 37.376-1.536 1.024c-15.872 11.264-21.504 31.744-13.824 49.664 0.512 1.536 5.12 12.288 5.12 21.504 0 31.232-25.6 56.832-56.832 56.832h-2.56c-15.872 0-28.672 12.8-32.256 32.768-0.512 3.072-5.632 30.208-5.632 52.736s5.12 49.664 5.632 52.736c3.584 19.968 16.384 32.768 32.768 32.768h2.56c31.232 0 56.832 25.6 56.832 56.832 0 8.192-3.584 18.432-5.12 21.504-7.68 18.432-1.536 39.424 15.36 50.688l65.024 36.352c16.896 7.168 36.352 3.072 48.64-9.728 7.68-8.704 30.72-27.648 46.08-27.648s38.4 18.944 46.592 28.16c12.8 13.824 33.28 17.92 50.176 9.728l66.048-36.352 1.536-1.536c15.36-11.264 21.504-31.744 14.336-49.664-3.072-6.656-5.12-14.336-5.12-21.504 0-31.232 25.6-56.832 56.832-56.832h3.072c15.872 0 28.672-12.8 32.256-32.768 0-0.512 5.632-29.696 5.632-52.736 0.512-23.04-4.608-50.688-5.12-53.76z m-49.152 87.552c-53.76 7.168-94.208 53.248-94.208 107.52 0 12.8 3.072 24.576 5.632 32.768l-47.616 26.112c-4.608-4.096-11.264-10.24-19.456-16.896-20.992-15.36-41.472-23.552-60.416-23.552-18.944 0-38.912 7.68-59.904 23.04-8.192 6.144-14.848 12.288-19.456 16.384l-45.568-25.6c2.56-8.192 5.632-20.48 5.632-32.768 0-54.784-40.448-100.864-94.208-107.52-1.024-8.704-3.072-23.04-3.072-34.816s2.048-26.112 3.072-34.816c53.76-7.168 94.208-53.248 94.208-107.52 0-12.8-3.072-24.576-5.632-32.768l49.152-26.624c4.608 4.096 11.264 9.728 19.456 15.872 20.992 14.848 40.448 22.016 58.88 22.016 18.432 0 37.888-7.168 58.88-21.504 8.192-6.144 15.36-11.776 19.456-15.36l47.104 26.112c-3.584 10.752-5.632 21.504-5.632 32.768 0 54.784 40.448 100.352 94.208 107.52 1.024 9.216 3.072 23.552 3.072 34.816-0.512 11.776-1.536 23.04-3.584 34.816zM93.184 947.712V890.88c0-193.024 148.992-351.744 338.432-369.664h0.512c11.776-1.536 23.552-1.536 35.328-1.536h5.12c41.984-3.072 105.472-13.312 138.752-42.496l16.384-12.8C690.176 415.744 727.04 340.48 727.04 261.12 727.04 118.784 610.304 3.072 467.456 3.072S207.36 118.784 207.36 261.12c0 79.36 36.352 153.088 99.84 202.752l16.384 12.8-19.456 7.68c-168.96 67.072-278.016 226.816-278.016 406.528v89.6c0 18.432 15.36 33.28 33.28 33.28h489.472c-15.872-20.48-29.696-42.496-40.448-66.56l-415.232 0.512zM273.92 261.12c0-105.472 86.528-191.488 193.024-191.488 105.984 0 192.512 86.016 192.512 191.488 0 105.472-86.528 191.488-192.512 191.488-106.496 0-193.024-86.016-193.024-191.488z" p-id="5283"></path></svg>