<?xml version="1.0" standalone="no"?><!DOCTYPE svg PUBLIC "-//W3C//DTD SVG 1.1//EN" "http://www.w3.org/Graphics/SVG/1.1/DTD/svg11.dtd"><svg t="1631859745039" class="icon" viewBox="0 0 1024 1024" version="1.1" xmlns="http://www.w3.org/2000/svg" p-id="6116" xmlns:xlink="http://www.w3.org/1999/xlink" width="200" height="200"><defs><style type="text/css"></style></defs><path d="M901.585 678.493l2.374 4.096a34.91 34.91 0 0 1-11.496 44.404l-4.096 2.42L539.276 903.96a34.91 34.91 0 0 1-26.205 2.048l-5.027-2.048-349.091-174.545a34.91 34.91 0 0 1 26.81-64.28l4.422 1.862 333.451 166.68L857.135 666.95a34.91 34.91 0 0 1 44.404 11.543z m0-174.545l2.374 4.096a34.91 34.91 0 0 1-11.496 44.404l-4.096 2.42-349.091 174.546a34.91 34.91 0 0 1-26.205 2.048l-5.027-2.048-349.091-174.546a34.91 34.91 0 0 1 26.81-64.279l4.422 1.862 333.451 166.68 333.499-166.727a34.91 34.91 0 0 1 44.404 11.544zM508.044 143.313a34.91 34.91 0 0 1 31.185 0L888.32 317.86a34.91 34.91 0 0 1 0 62.464L539.23 554.868a34.91 34.91 0 0 1-31.186 0L158.953 380.323a34.91 34.91 0 0 1 0-62.464z m15.592 70.238l-271.08 135.54 271.08 135.494L794.671 349.09 523.636 213.55z" p-id="6117"></path></svg>